<mxfile host="app.diagrams.net" modified="2023-08-04T17:41:18.133Z" agent="Mozilla/5.0 (Windows NT 10.0; Win64; x64) AppleWebKit/537.36 (KHTML, like Gecko) Chrome/115.0.0.0 Safari/537.36" version="21.6.2" etag="zeSc8esH3O3HTg5SPnek" type="github">
  <diagram name="Page-1" id="OfIbaL35jZ3kQPntOdnP">
    <mxGraphModel>
      <root>
        <mxCell id="0" />
        <mxCell id="1" parent="0" />
      </root>
    </mxGraphModel>
  </diagram>
</mxfile>
